<?xml version="1.0" encoding="UTF-8"?>
<svg width="390px" height="104px" viewBox="0 0 390 104" version="1.1" xmlns="http://www.w3.org/2000/svg" xmlns:xlink="http://www.w3.org/1999/xlink">
    <title>wave</title>
    <g id="Page-1" stroke="none" stroke-width="1" fill="none" fill-rule="evenodd">
        <g id="Summary-No-Reminder" transform="translate(0, -657)" fill="#3B6BDA" fill-rule="nonzero">
            <g id="wave" transform="translate(-328, 657)">
                <path d="M0,38.0748829 L23.9333333,38.0748829 C47.8666667,38.0748829 95.7333333,38.0748829 143.6,27.0873633 C191.466667,16.0998438 239.333333,-5.87519522 287.2,1.47270846 C335.066667,8.54592415 382.933333,45.6288025 430.8,52.7020182 C478.666667,60.0499219 526.533333,38.0748829 574.4,38.0748829 C622.266667,38.0748829 670.133333,60.0499219 694.066667,71.0374414 L718,82.024961 L718,104 L694.066667,104 C670.133333,104 622.266667,104 574.4,104 C526.533333,104 478.666667,104 430.8,104 C382.933333,104 335.066667,104 287.2,104 C239.333333,104 191.466667,104 143.6,104 C95.7333333,104 47.8666667,104 23.9333333,104 L0,104 L0,38.0748829 Z" id="Path"></path>
            </g>
        </g>
    </g>
</svg>