<?xml version="1.0" encoding="UTF-8"?>
<svg width="294px" height="243px" viewBox="0 0 294 243" version="1.1" xmlns="http://www.w3.org/2000/svg" xmlns:xlink="http://www.w3.org/1999/xlink">
    <title>material</title>
    <g id="Page-1" stroke="none" stroke-width="1" fill="none" fill-rule="evenodd">
        <g id="Onboarding-Screen-#1" transform="translate(-48, -201)" fill-rule="nonzero">
            <g id="material" transform="translate(48, 201)">
                <rect id="Rectangle" fill="#3F3D56" x="24" y="143" width="58" height="54"></rect>
                <path d="M105,216 L0,216 L0,124 L105,124 L105,216 Z M0.621301325,215.376272 L104.378699,215.376272 L104.378699,124.623728 L0.621301325,124.623728 L0.621301325,215.376272 Z" id="Shape" fill="#3F3D56"></path>
                <path d="M249.50065,89 C231.502342,89 215.276264,78.1580802 208.388611,61.5298114 C201.500958,44.9015426 205.308135,25.7615781 218.034863,13.0348542 C230.76159,0.308130319 249.901556,-3.49904217 266.529823,3.38861548 C283.15809,10.2762731 294,26.5023545 294,44.5006624 C293.972278,69.0654806 274.065468,88.9722844 249.50065,89 L249.50065,89 Z M249.50065,0.660550786 C225.288434,0.660550786 205.660551,20.2884295 205.660551,44.5006463 C205.660551,68.7128632 225.288425,88.3407499 249.500642,88.3407499 C273.712859,88.3407499 293.34075,68.7128793 293.34075,44.5006624 C293.313494,20.2997428 273.70157,0.687818909 249.50065,0.660550786 L249.50065,0.660550786 Z" id="Shape" fill="#3F3D56"></path>
                <circle id="Oval" fill="#3F3D56" cx="248.5" cy="44.5" r="21.5"></circle>
                <polygon id="Rectangle" fill="#FF6584" transform="translate(281.815, 119.35) rotate(-30) translate(-281.815, -119.35)" points="274.476579 112.011563 289.153519 112.011563 289.153519 126.688514 274.476579 126.688514"></polygon>
                <polygon id="Rectangle" fill="#3F3D56" transform="translate(87.8323, 48.1157) rotate(-30) translate(-87.8323, -48.1157)" points="80.4938248 40.7772423 95.1707679 40.7772423 95.1707679 55.4541935 80.4938248 55.4541935"></polygon>
                <polygon id="Rectangle" fill="#E5E5E5" transform="translate(264.107, 199.4384) rotate(-30) translate(-264.107, -199.4384)" points="256.768574 192.099883 271.445513 192.099883 271.445513 206.776822 256.768574 206.776822"></polygon>
                <rect id="Rectangle" fill="#3B6BDA" x="48" y="165" width="10" height="10"></rect>
                <circle id="Oval" fill="#3B6BDA" cx="249" cy="45" r="5"></circle>
                <polygon id="Rectangle" fill="#3B6BDA" transform="translate(225.0691, 137.4605) rotate(-30) translate(-225.0691, -137.4605)" points="209.327389 121.718821 240.810726 121.718821 240.810726 153.202147 209.327389 153.202147"></polygon>
                <rect id="Rectangle" fill="#CBCBCB" x="72" y="242" width="169" height="1"></rect>
                <path d="M136.151508,133.877933 C135.158736,132.617336 134.782031,130.986972 135.122757,129.425539 C135.463483,127.864106 136.48664,126.531997 137.916916,125.787657 L136.776282,113.505363 L144.160857,111 L145.525118,128.367338 C146.656157,130.879611 145.706823,133.830743 143.315367,135.236643 C140.923912,136.642542 137.846236,136.058827 136.151508,133.877937 L136.151508,133.877933 Z" id="Path" fill="#FFB8B8"></path>
                <path d="M144.2586,62.6324658 C144.2586,62.6324658 149.355999,52.0790767 153.885443,55.7913676 C158.414888,59.5036585 147.675644,90.7078196 147.675644,90.7078196 L146.042275,121 L137.433857,120.15116 L135,90.6382843 L144.2586,62.6324658 Z" id="Path" fill="#CCCCCC"></path>
                <polygon id="Path" fill="#FFB8B8" points="76 219.79596 82.3069049 225 105 202.680251 95.6916741 195"></polygon>
                <path d="M76.6698835,216 L89.192383,226.2034 L89.1928872,226.203806 C93.5998127,229.795284 94.28028,236.302609 90.7128213,240.738973 L90.5028886,241 L70,224.294022 L76.6698835,216 Z" id="Path" fill="#2F2E41"></path>
                <polygon id="Path" fill="#FFB8B8" points="165.001203 233 173.132162 232.999604 177 202 165 202.000396"></polygon>
                <path d="M162,231.000616 L177.879621,231 L177.880266,231 C183.469056,231.000286 187.999616,235.335934 188,240.684369 L188,240.999075 L162.000481,241 L162,231.000616 Z" id="Path" fill="#2F2E41"></path>
                <path d="M178.464221,86 C178.464221,86 193.873277,104.668592 190.523481,123.337185 C187.173686,142.005777 184.493851,156.007227 184.493851,156.007227 L179.134179,198.011562 C179.134179,198.011562 181.144055,209.451063 178.464221,212.398873 C178.464221,212.398873 182.483975,219.347099 175.114425,222.014039 C167.744876,224.680979 163.768533,221.092684 163.768533,221.092684 C163.768533,221.092684 158.36545,213.346481 161.715242,211.346271 L163.126377,128.913771 L109.458436,198.678296 C109.458436,198.678296 108.47196,207.164526 101.595651,207.255192 L93.3794219,213.346481 L84,208.012597 L88.6896907,202.011974 C88.6896907,202.011974 86.0098524,195.344622 92.0394866,194.01115 L126.877356,148.673125 L135.586825,125.337383 C135.586825,125.337383 140.27654,107.33552 153.005761,100.00143 L153.005761,92.1974959 L178.464221,86 Z" id="Path" fill="#2F2E41"></path>
                <path d="M152.863811,53.4469993 L152.863811,53.4469993 C157.01624,48.5750807 164.188944,47.5696541 169.537761,51.1097449 L170.08808,51.4739733 L170.08808,51.4739733 C175.968332,58.0849556 179.920525,66.1632491 181.519014,74.8388329 L184,88.3040861 L152.863811,95 L145.564472,70.0079796 C143.652669,63.4622164 146.723531,56.4949362 152.863799,53.4470113 L152.863811,53.4469993 Z" id="Path" fill="#CCCCCC"></path>
                <path d="M203.675897,136.668183 C201.907514,136.081144 200.485999,134.728803 199.793854,132.975046 C199.101709,131.221289 199.210033,129.246266 200.089677,127.581416 L191,116.284049 L196.413091,109 L209.028823,125.137156 C211.744545,126.861097 212.761388,130.375349 211.395711,133.317221 C210.030034,136.259094 206.713506,137.698706 203.675885,136.668183 L203.675897,136.668183 Z" id="Path" fill="#FFB8B8"></path>
                <path d="M166.276886,63.6865959 C166.276886,63.6865959 164.307915,50.3577387 170.871156,51.024184 C177.434396,51.6906293 187.279253,88.3449745 187.279253,88.3449745 L205,118.334899 L196.467788,123 L175.465421,96.3423017 L166.276886,63.6865959 Z" id="Path" fill="#CCCCCC"></path>
                <path d="M178.514941,45 L146.485091,45 C145.11325,44.9984536 144.001537,43.8800634 144,42.4999833 L144,28.6111106 C144,18.332478 152.282732,10 162.5,10 C172.717268,10 181,18.332478 181,28.6111106 L181,42.5 C180.998454,43.8800606 179.886763,44.9984356 178.514941,45 Z" id="Path" fill="#2F2E41"></path>
                <circle id="Oval" fill="#FFB8B8" transform="translate(165.8336, 30.6624) rotate(-61.3368) translate(-165.8336, -30.6624)" cx="165.833601" cy="30.6623689" r="13.4254969"></circle>
                <path d="M185,30 L167.878682,30 L167.703068,27.1712258 L166.825242,30 L164.188928,30 L163.841003,24.3934459 L162.101139,30 L157,30 L157,29.7222249 C157,21.6042744 162.738885,15 169.792977,15 L172.2069,15 C179.260997,15 185,21.6042662 185,29.7222249 L185,30 Z" id="Path" fill="#2F2E41"></path>
                <path d="M168.547193,46.9995627 C168.342507,46.9994058 168.13813,46.9835955 167.935838,46.9522691 L148,43.8701564 L148,23.0278974 C148,18.5942121 151.580807,15 155.997955,15 L169.945516,15 L169.402192,15.555069 C161.842874,23.2800552 167.537943,35.8062221 171.605478,42.5853004 C172.21845,43.5856447 172.108703,44.8704836 171.335031,45.7514964 C170.634348,46.5594974 169.614286,47.0161615 168.547193,46.9995627 Z" id="Path" fill="#2F2E41"></path>
            </g>
        </g>
    </g>
</svg>