<?xml version="1.0" encoding="UTF-8"?>
<svg width="390px" height="203px" viewBox="0 0 390 203" version="1.1" xmlns="http://www.w3.org/2000/svg" xmlns:xlink="http://www.w3.org/1999/xlink">
    <title>production</title>
    <g id="Page-1" stroke="none" stroke-width="1" fill="none" fill-rule="evenodd">
        <g id="Onboarding-Screen-#3" transform="translate(0, -229)" fill-rule="nonzero">
            <g id="production" transform="translate(0, 229)">
                <path d="M94.9762938,199.590511 L85.5410718,184.293372 L94.9806675,201.256968 L94.9857271,203 C95.6588523,202.991962 96.3251825,202.965602 96.9847178,202.920919 L96.2151416,180.529841 L96.2252607,180.35677 L96.207921,180.323721 L96.1346457,178.20791 L106,161.44226 L96.1244705,176.623429 L96.0949197,177.071584 L95.5135741,160.154249 L103.994634,142.808024 L95.4472865,157.181625 L95.0496985,122.116701 L95.0478783,122 L95.0465109,122.114837 L94.8529232,149.761149 L86.748803,138.699418 L94.8600963,152.142328 L94.8977044,167.28441 L87.3782728,152.660143 L94.9018582,169.510581 L94.9226658,177.93034 L84,157.568104 L94.9312753,180.867588 L94.9762938,199.590511 Z" id="Path" fill="#E2E2E2"></path>
                <path d="M176.976281,199.590511 L167.541059,184.29337 L176.980668,201.256968 L176.985727,203 C177.658852,202.991962 178.325183,202.965602 178.984718,202.920919 L178.21515,180.529839 L178.225269,180.356768 L178.20793,180.323718 L178.134654,178.207907 L188,161.442264 L178.124466,176.623435 L178.09492,177.07159 L177.513574,160.154253 L185.994634,142.808027 L177.447286,157.181628 L177.049698,122.116701 L177.047874,122 L177.046507,122.114837 L176.852923,149.761152 L168.748803,138.69942 L176.860096,152.142331 L176.897704,167.284415 L169.378268,152.660146 L176.901858,169.510586 L176.922662,177.930346 L166,157.568126 L176.931275,180.867612 L176.976281,199.590511 Z" id="Path" fill="#E2E2E2"></path>
                <path d="M11.4816799,200.558638 L4.19083084,189.605134 L11.4850586,201.751905 L11.4889682,203 C12.0091076,202.994247 12.5239988,202.975371 13.0336419,202.943373 L12.4389696,186.910261 L12.4467888,186.786335 L12.4334029,186.762673 L12.3767809,185.247653 L20,173.242619 L12.3689109,184.113084 L12.3460812,184.433976 L11.8968575,172.320332 L18.4504013,159.899582 L11.8456497,170.191787 L11.5384219,145.083563 L11.5370141,145 L11.5359571,145.082225 L11.3863682,164.87835 L5.12410915,156.957605 L11.3919071,166.583388 L11.4209867,177.425865 L5.61051778,166.95417 L11.4241947,179.019904 L11.4402761,185.048869 L3,170.468527 L11.4468906,187.152105 L11.4816799,200.558638 Z" id="Path" fill="#E2E2E2"></path>
                <path d="M377.976298,199.590511 L368.541076,184.293372 L377.980668,201.256968 L377.985727,203 C378.658852,202.991962 379.325184,202.965602 379.984722,202.920919 L379.215142,180.529841 L379.225261,180.35677 L379.207925,180.323721 L379.134646,178.20791 L389,161.44226 L379.124471,176.623429 L379.094924,177.071584 L378.513578,160.154249 L386.994634,142.808024 L378.447286,157.181625 L378.049698,122.116701 L378.047878,122 L378.046511,122.114837 L377.852923,149.761149 L369.748803,138.699418 L377.860096,152.142328 L377.897709,167.28441 L370.378273,152.660143 L377.901858,169.510581 L377.922666,177.93034 L367,157.568122 L377.931275,180.867605 L377.976298,199.590511 Z" id="Path" fill="#E2E2E2"></path>
                <rect id="Rectangle" fill="#3B6BDA" transform="translate(143, 175) rotate(-180) translate(-143, -175)" x="117" y="174" width="52" height="2"></rect>
                <rect id="Rectangle" fill="#3B6BDA" transform="translate(140, 173) rotate(-180) translate(-140, -173)" x="114" y="172" width="52" height="2"></rect>
                <rect id="Rectangle" fill="#3B6BDA" transform="translate(143, 171) rotate(-180) translate(-143, -171)" x="117" y="170" width="52" height="2"></rect>
                <rect id="Rectangle" fill="#3B6BDA" transform="translate(148, 169) rotate(-180) translate(-148, -169)" x="122" y="168" width="52" height="2"></rect>
                <rect id="Rectangle" fill="#3F3D56" transform="translate(79, 164.5) rotate(-180) translate(-79, -164.5)" x="78" y="158" width="2" height="13"></rect>
                <polygon id="Rectangle" fill="#3F3D56" transform="translate(111.9099, 145.0065) rotate(-112.0915) translate(-111.9099, -145.0065)" points="111.006915 108.944456 112.812857 108.944456 112.812857 181.068631 111.006915 181.068631"></polygon>
                <rect id="Rectangle" fill="#3F3D56" transform="translate(52, 187) rotate(-180) translate(-52, -187)" x="44" y="184" width="16" height="6"></rect>
                <rect id="Rectangle" fill="#3F3D56" transform="translate(85, 192) rotate(-180) translate(-85, -192)" x="46" y="189" width="78" height="6"></rect>
                <polygon id="Path" fill="#E2E2E2" points="59 193 78 193 78 170 63.7960378 170 59 181.600139"></polygon>
                <rect id="Rectangle" fill="#FFFFFF" transform="translate(71, 175) rotate(-180) translate(-71, -175)" x="67" y="171" width="8" height="8"></rect>
                <polygon id="Path" fill="#FFFFFF" points="61 179 66 179 66 171 63.8569561 171"></polygon>
                <rect id="Rectangle" fill="#3F3D56" transform="translate(73, 184) rotate(-180) translate(-73, -184)" x="72" y="182" width="2" height="4"></rect>
                <path d="M62,175 L62.1000007,175 C63.1493414,175 64,175.895434 64,177 L64,177 C64,178.104571 63.1493414,179 62.1000007,179 L62,179 L62,175 L62,175 Z" id="Path" fill="#3F3D56" transform="translate(63, 177) rotate(180) translate(-63, -177)"></path>
                <path d="M130,189 L130.100001,189 C131.149341,189 132,189.895434 132,191 L132,191 C132,192.104571 131.149341,193 130.100001,193 L130,193 L130,189 L130,189 Z" id="Path" fill="#3F3D56" transform="translate(131, 191) rotate(-180) translate(-131, -191)"></path>
                <path d="M51.2511616,189.464012 C48.5885176,189.49967 46.0865039,190.801289 44.4541717,193 L41,193 L44.3581416,183.224002 L60,180 L59.5581407,193 L58.0481774,193 C56.4158387,190.801283 53.9138144,189.499664 51.2511616,189.464012 L51.2511616,189.464012 Z" id="Path" fill="#E2E2E2"></path>
                <circle id="Oval" fill="#3F3D56" cx="51" cy="195" r="8"></circle>
                <circle id="Oval" fill="#E2E2E2" cx="51" cy="195" r="4"></circle>
                <circle id="Oval" fill="#3F3D56" cx="123" cy="196" r="7"></circle>
                <circle id="Oval" fill="#E2E2E2" cx="122.5" cy="195.5" r="3.5"></circle>
                <rect id="Rectangle" fill="#3F3D56" transform="translate(79, 180) rotate(-180) translate(-79, -180)" x="77" y="166" width="4" height="28"></rect>
                <rect id="Rectangle" fill="#3F3D56" transform="translate(104.5, 189) rotate(-180) translate(-104.5, -189)" x="77" y="188" width="55" height="2"></rect>
                <rect id="Rectangle" fill="#3F3D56" transform="translate(64, 179.5) rotate(-180) translate(-64, -179.5)" x="63" y="179" width="2" height="1"></rect>
                <path d="M143.050782,176.940614 C143.01332,176.90237 142.995237,176.851112 143.001078,176.799724 L145.695804,153.162218 C145.7063,153.070307 145.789645,153.000428 145.889283,153 L145.890141,153 C145.989451,153 146.072963,153.069107 146.084293,153.160625 L148.998733,176.749111 C149.005027,176.800148 148.98768,176.851265 148.951005,176.889756 C148.91433,176.928246 148.861771,176.950495 148.806394,176.950971 L143.197223,177 L143.195411,177 C143.140327,177 143.087798,176.978453 143.050782,176.940614 Z M145.897958,154.83624 L143.41276,176.635559 L148.585725,176.590427 L145.897958,154.83624 Z" id="Shape" fill="#3F3D56"></path>
                <path d="M44.0271509,183.358765 L44.1174487,183.358765 C45.0649731,183.358765 45.8330934,184.12689 45.8330934,185.074414 L45.8330934,185.074414 C45.8330934,186.021939 45.0649731,186.790059 44.1174487,186.790059 L44.0271509,186.790059 L44.0271509,183.358765 L44.0271509,183.358765 Z" id="Path" fill="#3F3D56" transform="translate(44.9301, 185.0744) rotate(20.7174) translate(-44.9301, -185.0744)"></path>
                <rect id="Rectangle" fill="#3F3D56" transform="translate(146, 144) rotate(-180) translate(-146, -144)" x="145" y="131" width="2" height="26"></rect>
                <circle id="Oval" fill="#3F3D56" cx="79.5" cy="158.5" r="2.5"></circle>
                <rect id="Rectangle" fill="#3B6BDA" transform="translate(108, 187) rotate(-180) translate(-108, -187)" x="82" y="186" width="52" height="2"></rect>
                <rect id="Rectangle" fill="#3B6BDA" transform="translate(112, 185) rotate(-180) translate(-112, -185)" x="86" y="184" width="52" height="2"></rect>
                <rect id="Rectangle" fill="#3B6BDA" transform="translate(109, 184) rotate(-180) translate(-109, -184)" x="83" y="183" width="52" height="2"></rect>
                <rect id="Rectangle" fill="#3B6BDA" transform="translate(113, 181) rotate(-180) translate(-113, -181)" x="87" y="180" width="52" height="2"></rect>
                <path d="M168.780607,54.2503513 C170.445145,54.2486957 172.054323,54.7675941 173.311775,55.7114793 C174.305273,55.4766515 175.34687,55.4370426 176.360338,55.5955511 C178.082468,53.4326779 181.230154,52.4908949 184.128103,53.2714474 C187.026052,54.052 189,56.3733479 189,59 L162,59 C162.682248,56.2305513 165.508633,54.2507384 168.780607,54.2503513 L168.780607,54.2503513 Z" id="Path" fill="#E2E2E2"></path>
                <path d="M128.278337,75.2503548 C129.819577,75.2486988 131.309557,75.7675995 132.473864,76.7114892 C133.39377,76.4766641 134.358211,76.4370547 135.296608,76.5955596 C136.891171,74.4326823 139.805689,73.4908956 142.488972,74.2714453 C145.172256,75.051995 147,77.3733423 147,80 L122,80 C122.631721,77.2305502 125.24874,75.2507408 128.278337,75.2503548 L128.278337,75.2503548 Z" id="Path" fill="#E2E2E2"></path>
                <path d="M87.7806,40.2503438 C89.4451397,40.2486876 91.0543201,40.7675902 92.3117715,41.7114832 C93.3052702,41.4766543 94.3468677,41.4370443 95.360337,41.595552 C97.0824695,39.4326784 100.230145,38.490896 103.128086,39.2714463 C106.026028,40.0519965 108,42.3733415 108,45 L81,45 C81.6822579,42.2305462 84.5086356,40.2507329 87.7806,40.2503438 L87.7806,40.2503438 Z" id="Path" fill="#E2E2E2"></path>
                <path d="M262,108.121408 L262,163 L283.502513,163 L283.502513,107.35918 L278.510985,107.536115 L278.510985,96.3072291 L274.89049,96.3072291 L274.293917,71.4378024 C275.754867,70.49295 276.78309,68.2488486 276.78309,65.6285848 C276.7847,64.8763245 276.696472,64.126526 276.520253,63.3948787 C277.942201,61.8677277 278.145989,59.5802887 277.0161,57.8291851 C278.266401,58.913613 280.007917,59.2463796 281.574509,58.7002004 C283.141102,58.1540211 284.290375,56.8134057 284.582726,55.1911448 C284.875078,53.5688839 284.265273,51.9159882 282.986565,50.8646968 C285.177495,50.0622243 286.41719,47.759911 285.871939,45.5060946 C285.326687,43.2522783 283.168902,41.7596391 280.849724,42.0319979 C278.530547,42.3043567 276.783325,44.2555908 276.78309,46.5734679 C276.78309,46.6404571 276.78525,46.7069059 276.788061,46.7730911 C275.507919,46.3849867 274.121031,46.5681961 272.987733,47.2751184 C271.854434,47.9820408 271.086604,49.142889 270.883736,50.4560568 C269.313439,49.5287703 267.339432,49.6100256 265.851889,50.663181 C264.364346,51.7163363 263.644335,53.5424004 264.016542,55.3179142 C264.38875,57.0934281 265.782849,58.4829125 267.570173,58.859783 C267.569288,58.892981 267.567579,58.9259111 267.567579,58.9593244 C267.995524,60.2410846 268.540237,61.4814822 269.194965,62.6651369 C268.874863,63.6206335 268.714308,64.6216452 268.719654,65.6285628 C268.719654,68.2488486 269.747656,70.49295 271.208605,71.4377804 L270.612037,96.3072072 L266.991759,96.3072072 L266.991759,107.944421 L262,108.121408 Z M275.42716,55.7196333 L275.43905,55.7199013 C275.505624,55.7199013 275.571547,55.7177572 275.637257,55.7149673 C275.678759,55.8501232 275.72624,55.9824526 275.779701,56.1119554 C275.669835,55.9746082 275.552133,55.8436197 275.427173,55.7196333 L275.42716,55.7196333 Z" id="Shape" fill="#E2E2E2"></path>
                <rect id="Rectangle" fill="#3F3D56" transform="translate(282.5, 164.5) rotate(-180) translate(-282.5, -164.5)" x="250" y="127" width="65" height="75"></rect>
                <rect id="Rectangle" fill="#E2E2E2" transform="translate(283, 194.5) rotate(-180) translate(-283, -194.5)" x="274" y="187" width="18" height="15"></rect>
                <path d="M229.11711,28.1778641 C229.115855,28.2333774 229.112868,28.2884061 229.112868,28.344175 C229.110732,30.4093488 229.955596,32.3869093 231.453949,33.8239057 C231.569757,34.0684529 231.698593,34.3067448 231.839911,34.5377765 C231.30332,36.1346583 231.034186,37.8076682 231.043169,39.4905534 C231.043169,45.2947597 234.067882,50 237.79916,50 C241.530438,50 244.555145,45.2947597 244.555145,39.4905534 C244.557926,38.2332844 244.410123,36.9801222 244.114831,35.7573033 C246.497501,33.2049753 246.838962,29.3820529 244.945665,26.4554657 C247.040828,28.2676687 249.958978,28.8236734 252.583992,27.9108209 C255.209006,26.9979685 257.134752,24.7574915 257.624677,22.0463202 C258.114603,19.335149 257.092908,16.5727444 254.950368,14.8156618 C258.621735,13.4744744 260.699099,9.6265787 259.7854,5.85974653 C258.8717,2.09291436 255.25586,-0.401737597 251.36959,0.0534843126 C247.48332,0.508706222 244.555504,3.76985547 244.555145,7.64375662 C244.555145,7.75566447 244.558915,7.86669115 244.563628,7.97740502 C242.418489,7.3287453 240.094468,7.63492812 238.195383,8.81640225 C236.296298,9.99787638 235.009627,11.9380065 234.669669,14.1327155 C232.038319,12.582891 228.730443,12.7186643 226.237736,14.478808 C223.74503,16.2389518 222.538492,19.2908854 223.162215,22.2583297 C223.785939,25.225774 226.12207,27.5480281 229.117123,28.1778641 L229.11711,28.1778641 Z M242.303132,22.9302187 C242.414507,22.9302187 242.525094,22.9265267 242.63537,22.9219006 C242.704647,23.1478046 242.784134,23.3689768 242.873831,23.5854172 C242.689782,23.3558469 242.492575,23.1369216 242.283184,22.9297209 L242.303132,22.9302187 Z" id="Shape" fill="#E2E2E2"></path>
                <path d="M234,102 L241,102 L240.750007,90.4298419 L240.750007,90.4253953 L239.833956,48 C238.401146,48.9649436 236.598854,48.9649436 235.166044,48 L234.250199,90.4253953 L234.250199,90.4298419 L234,102 Z" id="Path" fill="#3B6BDA"></path>
                <polygon id="Path" fill="#3B6BDA" points="220 110.6605 220 202 255 202 255 109.392506 246.875517 109.68647 246.875517 91 228.12405 91 228.12405 110.366536"></polygon>
                <path d="M319.11711,28.1778648 C319.115855,28.2333781 319.112868,28.2884068 319.112868,28.3441757 C319.110732,30.4093494 319.955596,32.3869099 321.453949,33.8239063 C321.569757,34.0684535 321.698593,34.3067454 321.839911,34.537777 C321.30332,36.1346587 321.034186,37.8076686 321.043169,39.4905538 C321.043169,45.2947598 324.067882,50 327.799155,50 C331.530429,50 334.555145,45.2947598 334.555145,39.4905538 C334.557924,38.2332849 334.410121,36.980123 334.114831,35.7573037 C336.497501,33.2049758 336.838962,29.3820535 334.945665,26.4554665 C337.040822,28.2677155 339.958998,28.8237527 342.584041,27.9109034 C345.209083,26.9980541 347.134849,24.7575532 347.624765,22.0463542 C348.114682,19.3351552 347.092949,16.5727314 344.950364,14.8156629 C348.621732,13.4744776 350.699098,9.62658199 349.7854,5.85974886 C348.871702,2.09291572 345.255862,-0.401737492 341.369591,0.0534842543 C337.483319,0.508706001 334.555503,3.76985617 334.555145,7.643758 C334.555145,7.75566584 334.558915,7.86669252 334.563628,7.97740639 C332.418489,7.32874669 330.094468,7.6349295 328.195383,8.81640359 C326.296298,9.99787768 325.009627,11.9380077 324.669669,14.1327167 C322.038319,12.5828922 318.730443,12.7186655 316.237736,14.4788092 C313.74503,16.2389529 312.538492,19.2908864 313.162215,22.2583306 C313.785939,25.2257748 316.12207,27.5480288 319.117123,28.1778648 L319.11711,28.1778648 Z M332.303141,22.9302152 C332.414516,22.9302152 332.525103,22.9265231 332.635379,22.921897 C332.704653,23.1478011 332.784138,23.3689733 332.873835,23.5854136 C332.689789,23.3558423 332.492584,23.1369169 332.283193,22.9297174 L332.303141,22.9302152 Z" id="Shape" fill="#E2E2E2"></path>
                <path d="M325,102 L332,102 L330.833355,48 C329.325005,48.5972824 327.675031,48.5972824 326.166681,48 L325,102 Z" id="Path" fill="#3B6BDA"></path>
                <polygon id="Path" fill="#3B6BDA" points="311 110.6605 311 202 346 202 346 109.392506 343.125124 109.497806 337.87253 109.68647 337.87253 91 319.123147 91 319.123147 110.366536"></polygon>
                <rect id="Rectangle" fill="#FFFFFF" transform="translate(297.5, 140.5) rotate(-180) translate(-297.5, -140.5)" x="293" y="136" width="9" height="9"></rect>
                <rect id="Rectangle" fill="#FFFFFF" transform="translate(282.5, 140.5) rotate(-180) translate(-282.5, -140.5)" x="278" y="136" width="9" height="9"></rect>
                <rect id="Rectangle" fill="#FFFFFF" transform="translate(268.5, 140.5) rotate(-180) translate(-268.5, -140.5)" x="264" y="136" width="9" height="9"></rect>
                <rect id="Rectangle" fill="#FFFFFF" transform="translate(297.5, 154.5) rotate(-180) translate(-297.5, -154.5)" x="293" y="150" width="9" height="9"></rect>
                <rect id="Rectangle" fill="#FFFFFF" transform="translate(282.5, 154.5) rotate(-180) translate(-282.5, -154.5)" x="278" y="150" width="9" height="9"></rect>
                <rect id="Rectangle" fill="#FFFFFF" transform="translate(268.5, 154.5) rotate(-180) translate(-268.5, -154.5)" x="264" y="150" width="9" height="9"></rect>
                <rect id="Rectangle" fill="#FFFFFF" transform="translate(297.5, 168.5) rotate(-180) translate(-297.5, -168.5)" x="293" y="164" width="9" height="9"></rect>
                <rect id="Rectangle" fill="#FFFFFF" transform="translate(282.5, 168.5) rotate(-180) translate(-282.5, -168.5)" x="278" y="164" width="9" height="9"></rect>
                <rect id="Rectangle" fill="#FFFFFF" transform="translate(268.5, 168.5) rotate(-180) translate(-268.5, -168.5)" x="264" y="164" width="9" height="9"></rect>
                <rect id="Rectangle" fill="#FFFFFF" transform="translate(237.5, 137.5) rotate(-180) translate(-237.5, -137.5)" x="233" y="133" width="9" height="9"></rect>
                <rect id="Rectangle" fill="#FFFFFF" transform="translate(237.5, 151.5) rotate(-180) translate(-237.5, -151.5)" x="233" y="147" width="9" height="9"></rect>
                <rect id="Rectangle" fill="#FFFFFF" transform="translate(237.5, 164.5) rotate(-180) translate(-237.5, -164.5)" x="233" y="160" width="9" height="9"></rect>
                <rect id="Rectangle" fill="#FFFFFF" transform="translate(237.5, 179.5) rotate(-180) translate(-237.5, -179.5)" x="233" y="175" width="9" height="9"></rect>
                <rect id="Rectangle" fill="#FFFFFF" transform="translate(328.5, 137.5) rotate(-180) translate(-328.5, -137.5)" x="324" y="133" width="9" height="9"></rect>
                <rect id="Rectangle" fill="#FFFFFF" transform="translate(328.5, 151.5) rotate(-180) translate(-328.5, -151.5)" x="324" y="147" width="9" height="9"></rect>
                <rect id="Rectangle" fill="#FFFFFF" transform="translate(328.5, 164.5) rotate(-180) translate(-328.5, -164.5)" x="324" y="160" width="9" height="9"></rect>
                <rect id="Rectangle" fill="#FFFFFF" transform="translate(328.5, 179.5) rotate(-180) translate(-328.5, -179.5)" x="324" y="175" width="9" height="9"></rect>
                <rect id="Rectangle" fill="#3F3D56" x="0" y="202" width="391" height="1"></rect>
            </g>
        </g>
    </g>
</svg>