<?xml version="1.0" encoding="UTF-8"?>
<svg width="286px" height="205px" viewBox="0 0 286 205" version="1.1" xmlns="http://www.w3.org/2000/svg" xmlns:xlink="http://www.w3.org/1999/xlink">
    <title>input material:product</title>
    <g id="Page-1" stroke="none" stroke-width="1" fill="none" fill-rule="evenodd">
        <g id="Onboarding-Screen-#4" transform="translate(-52, -232)" fill-rule="nonzero">
            <g id="input-material:product" transform="translate(52, 232)">
                <path d="M279.322718,205 L107.677282,205 C103.99124,204.995861 101.004147,202.014943 101,198.33652 L101,6.66347992 C101.00415,2.98505819 103.991241,0.00414096108 107.677282,0 L279.322718,0 C283.008759,0.00414096108 285.99585,2.98505819 286,6.66347992 L286,198.33652 C285.995853,202.014943 283.00876,204.995861 279.322718,205 L279.322718,205 Z M107.677282,0.783938815 C104.424901,0.787610988 101.789242,3.41782131 101.785563,6.66347992 L101.785563,198.33652 C101.789242,201.582179 104.424901,204.212389 107.677282,204.216061 L279.322718,204.216061 C282.575099,204.212389 285.210758,201.582179 285.214437,198.33652 L285.214437,6.66347992 C285.210758,3.41782131 282.575099,0.787610988 279.322718,0.783938815 L107.677282,0.783938815 Z" id="Shape" fill="#3F3D56"></path>
                <rect id="Rectangle" fill="#3F3D56" x="101" y="16" width="184" height="1"></rect>
                <circle id="Oval" fill="#3C6EE1" cx="109.5" cy="7.5" r="3.5"></circle>
                <circle id="Oval" fill="#3C6EE1" cx="119.5" cy="7.5" r="3.5"></circle>
                <circle id="Oval" fill="#3C6EE1" cx="129.5" cy="7.5" r="3.5"></circle>
                <path d="M253.923077,45 L132.076923,45 C129.273016,45 127,42.7614237 127,40 C127,37.2385763 129.273016,35 132.076923,35 L253.923077,35 C256.726984,35 259,37.2385763 259,40 C259,42.7614237 256.726984,45 253.923077,45 L253.923077,45 Z M132.076923,35.7692308 C129.704386,35.7692308 127.781065,37.6634107 127.781065,40 C127.781065,42.3365893 129.704386,44.2307692 132.076923,44.2307692 L253.923077,44.2307692 C256.295614,44.2307692 258.218935,42.3365893 258.218935,40 C258.218935,37.6634107 256.295614,35.7692308 253.923077,35.7692308 L132.076923,35.7692308 Z" id="Shape" fill="#3F3D56"></path>
                <path d="M222.860759,85 L167.139241,85 C165.405486,85 164,83.4329966 164,81.5 C164,79.5670034 165.405486,78 167.139241,78 L222.860759,78 C224.594514,78 226,79.5670034 226,81.5 C226,83.4329966 224.594514,85 222.860759,85 Z" id="Path" fill="#CCCCCC"></path>
                <path d="M255.866667,95 L168.133333,95 C166.402841,95 165,93.4329966 165,91.5 C165,89.5670034 166.402841,88 168.133333,88 L255.866667,88 C257.597159,88 259,89.5670034 259,91.5 C259,93.4329966 257.597159,95 255.866667,95 Z" id="Path" fill="#CCCCCC"></path>
                <path d="M147.322581,96 L130.677419,96 C128.647393,95.9976689 127.002306,94.3347009 127,92.2826087 L127,81.7173913 C127.002304,79.6652982 128.647392,78.0023289 130.677419,78 L147.322581,78 C149.352608,78.0023289 150.997696,79.6652982 151,81.7173913 L151,92.2826087 C150.997694,94.3347009 149.352607,95.9976689 147.322581,96 Z M130.677419,78.7826087 C129.07475,78.7844094 127.775975,80.0973021 127.774194,81.7173913 L127.774194,92.2826087 C127.775977,93.902697 129.074751,95.2155885 130.677419,95.2173913 L147.322581,95.2173913 C148.925249,95.2155885 150.224023,93.902697 150.225806,92.2826087 L150.225806,81.7173913 C150.224025,80.0973021 148.92525,78.7844094 147.322581,78.7826087 L130.677419,78.7826087 Z" id="Shape" fill="#CCCCCC"></path>
                <path d="M222.860759,122 L167.139241,122 C165.405486,122 164,120.432997 164,118.5 C164,116.567003 165.405486,115 167.139241,115 L222.860759,115 C224.594514,115 226,116.567003 226,118.5 C226,120.432997 224.594514,122 222.860759,122 Z" id="Path" fill="#CCCCCC"></path>
                <path d="M255.866667,133 L168.133333,133 C166.402841,133 165,131.432997 165,129.5 C165,127.567003 166.402841,126 168.133333,126 L255.866667,126 C257.597159,126 259,127.567003 259,129.5 C259,131.432997 257.597159,133 255.866667,133 Z" id="Path" fill="#CCCCCC"></path>
                <path d="M147.322581,134 L130.677419,134 C128.647393,133.997669 127.002306,132.334701 127,130.282609 L127,119.717391 C127.002304,117.665298 128.647392,116.002329 130.677419,116 L147.322581,116 C149.352608,116.002329 150.997696,117.665298 151,119.717391 L151,130.282609 C150.997694,132.334701 149.352607,133.997669 147.322581,134 Z M130.677419,116.782609 C129.07475,116.784409 127.775975,118.097302 127.774194,119.717391 L127.774194,130.282609 C127.775977,131.902697 129.074751,133.215588 130.677419,133.217391 L147.322581,133.217391 C148.925249,133.215588 150.224023,131.902697 150.225806,130.282609 L150.225806,119.717391 C150.224025,118.097302 148.92525,116.784409 147.322581,116.782609 L130.677419,116.782609 Z" id="Shape" fill="#CCCCCC"></path>
                <path d="M222.860759,160 L167.139241,160 C165.405486,160 164,158.432997 164,156.5 C164,154.567003 165.405486,153 167.139241,153 L222.860759,153 C224.594514,153 226,154.567003 226,156.5 C226,158.432997 224.594514,160 222.860759,160 Z" id="Path" fill="#F2F2F2"></path>
                <path d="M255.866667,170 L168.133333,170 C166.402841,170 165,168.432997 165,166.5 C165,164.567003 166.402841,163 168.133333,163 L255.866667,163 C257.597159,163 259,164.567003 259,166.5 C259,168.432997 257.597159,170 255.866667,170 Z" id="Path" fill="#F2F2F2"></path>
                <path d="M147.322581,170 L130.677419,170 C128.647393,169.997669 127.002306,168.334701 127,166.282609 L127,155.717391 C127.002304,153.665298 128.647392,152.002329 130.677419,152 L147.322581,152 C149.352608,152.002329 150.997696,153.665298 151,155.717391 L151,166.282609 C150.997694,168.334701 149.352607,169.997669 147.322581,170 Z" id="Path" fill="#F2F2F2"></path>
                <path d="M139,93 L138.129961,92.2205329 C135.040274,89.4033563 133.000502,87.5748749 133.000502,85.2971359 C132.985043,84.4215842 133.327066,83.5770945 133.94867,82.9560185 C134.570273,82.3349424 135.418528,81.9901638 136.300224,82.0002137 C137.342635,82.0057265 138.329899,82.4660753 139,83.2590868 C139.670092,82.4660602 140.657362,82.0057078 141.699776,82.0002137 C142.581472,81.9901648 143.429726,82.3349438 144.051329,82.9560196 C144.672932,83.5770954 145.014956,84.4215845 144.999498,85.2971359 C144.999498,87.5748898 142.959699,89.4033749 139.870043,92.2205329 L139,93 Z" id="Path" fill="#3C6EE1"></path>
                <path d="M139,130 L138.129961,129.220533 C135.040274,126.403356 133.000502,124.574875 133.000502,122.297136 C132.985043,121.421584 133.327066,120.577095 133.94867,119.956018 C134.570273,119.334942 135.418528,118.990164 136.300224,119.000214 C137.342635,119.005727 138.329899,119.466075 139,120.259087 C139.670092,119.46606 140.657362,119.005708 141.699776,119.000214 C142.581472,118.990165 143.429726,119.334944 144.051329,119.95602 C144.672932,120.577095 145.014956,121.421585 144.999498,122.297136 C144.999498,124.57489 142.959699,126.403375 139.870043,129.220533 L139,130 Z" id="Path" fill="#3C6EE1"></path>
                <path d="M68.3225806,124 L51.6774194,124 C49.6473927,123.997669 48.002306,122.334701 48,120.282609 L48,109.717391 C48.0023039,107.665298 49.6473918,106.002329 51.6774194,106 L68.3225806,106 C70.3526082,106.002329 71.9976961,107.665298 72,109.717391 L72,120.282609 C71.997694,122.334701 70.3526073,123.997669 68.3225806,124 L68.3225806,124 Z M51.6774194,106.782609 C50.0747504,106.784409 48.7759749,108.097302 48.7741935,109.717391 L48.7741935,120.282609 C48.775977,121.902697 50.0747513,123.215588 51.6774194,123.217391 L68.3225806,123.217391 C69.9252487,123.215588 71.224023,121.902697 71.2258065,120.282609 L71.2258065,109.717391 C71.2240251,108.097302 69.9252496,106.784409 68.3225806,106.782609 L51.6774194,106.782609 Z" id="Shape" fill="#3F3D56"></path>
                <path d="M60,121 L59.1299515,120.220533 C56.0402706,117.403356 54.0005022,115.574875 54.0005022,113.297136 C53.9850426,112.421584 54.3270658,111.577095 54.9486681,110.956018 C55.5702705,110.334942 56.4185235,109.990164 57.3002182,110.000214 C58.3426341,110.00572 59.3299043,110.466069 60,111.259087 C60.6700989,110.466059 61.6573685,110.005707 62.6997819,110.000214 C63.581476,109.990166 64.4297278,110.334945 65.0513297,110.956021 C65.6729316,111.577096 66.0149554,112.421585 65.9994979,113.297136 C65.9994979,115.57489 63.9596995,117.403375 60.8700487,120.220533 L60,121 Z" id="Path" fill="#3C6EE1"></path>
                <polygon id="Path" fill="#FFB8B8" points="50.3065129 201 55 199.982395 52.9271346 183 46 184.501795"></polygon>
                <path d="M48.9190381,197.779662 L62.9865124,197.779662 L62.9865124,203.214824 L54.3541928,203.214824 C52.9127001,203.214824 51.5302473,202.642193 50.5109581,201.622904 C49.4916689,200.603615 48.9190381,199.221162 48.9190381,197.779662 L48.9190381,197.779662 L48.9190381,197.779662 Z" id="Path" fill="#2F2E41" transform="translate(55.9528, 200.4972) rotate(166.6194) translate(-55.9528, -200.4972)"></path>
                <path d="M45.5650007,190.718141 L36,157.962475 L47.9526712,155 L54.9646798,189.690529 C55.0687121,190.204912 54.940337,190.738954 54.6138445,191.15001 C54.2873519,191.561066 53.796001,191.807262 53.271035,191.822837 L47.3285359,191.999228 C47.3106495,191.999624 47.2928621,192 47.2750786,192 C46.4833771,192 45.7867932,191.477538 45.5650007,190.718141 L45.5650007,190.718141 Z" id="Path" fill="#2F2E41"></path>
                <polygon id="Path" fill="#FFB8B8" points="22.0016595 199 26.7443845 198.999614 29 182 22 182.000771"></polygon>
                <path d="M21.7848623,199.332984 L35.8523365,199.332984 L35.8523365,204.768143 L27.2200169,204.768143 C24.2182639,204.768143 21.7848623,202.334741 21.7848623,199.332984 L21.7848623,199.332984 L21.7848623,199.332984 Z" id="Path" fill="#2F2E41" transform="translate(28.8186, 202.0506) rotate(179.9948) translate(-28.8186, -202.0506)"></path>
                <path d="M21.56575,193.508341 C21.2362721,193.194826 21.0482735,192.764608 21.0437654,192.313827 L17,160.790557 C16.9965568,159.843974 17.7716442,159.072524 18.7344044,159.064302 L27.7603843,159 L27.7732739,159 C28.7266439,159.00256 29.5028878,159.754227 29.519978,160.691401 L29.9997839,191.74498 C30.0147291,192.688315 29.2525249,193.466695 28.293162,193.48782 L22.8139737,194 C22.8055372,194 22.7971007,194 22.7886681,194 C22.3310193,194.001146 21.8914536,193.824426 21.56575,193.508341 L21.56575,193.508341 Z" id="Path" fill="#2F2E41"></path>
                <circle id="Oval" fill="#FFB8B8" cx="24.5" cy="77.5" r="9.5"></circle>
                <path d="M10.3407586,158.679242 C4.10688074,153.818131 4.17286522,148.147029 6.29999202,140.57231 C6.89922788,138.438477 7.54598896,136.275784 8.23065162,133.986088 C11.4118723,123.348181 15.0174962,111.290645 13.6486429,101.334991 L13.8418801,101.308564 L13.6486429,101.334991 C13.2736919,98.6082669 14.2294039,95.7401124 16.2705422,93.466196 C18.311778,91.1918981 21.0592018,89.9317608 23.8210046,90.0028535 C26.5779507,90.0762315 29.2588049,91.4827434 31.1759438,93.8619732 C33.0837478,96.2296093 33.9943181,104.554817 34.2642245,105.748043 C35.5033635,111.224492 36.2512683,114.530053 36.7876483,119.803288 C37.4220277,126.037457 45.0196331,144.677033 47.4406727,147.802766 C48.7402788,149.47184 49.2622962,151.616064 48.8749565,153.694189 C48.5139069,155.671801 47.3104311,157.395601 45.5765827,158.418619 C41.6475771,160.815608 37.3302321,162.511253 32.8181285,163.429526 C30.8608773,163.808195 28.8718296,163.999223 26.8781401,164 C20.6924545,164 14.7819884,162.142389 10.3407586,158.679242 Z" id="Path" fill="#3C6EE1"></path>
                <path d="M51.5626646,121.968446 C51.0533656,121.075778 50.1395138,120.436052 49.0670108,120.221408 C47.9945078,120.006764 46.873525,120.23925 46.0056991,120.856309 L38.6438982,117 L35,120.535389 L45.4796055,125.847188 C46.7329503,127.145337 48.8458666,127.377755 50.397813,126.388184 C51.9497594,125.398613 52.4501926,123.49984 51.5626646,121.968435 L51.5626646,121.968446 Z" id="Path" fill="#FFB8B8"></path>
                <path d="M39.689275,124.916916 L26.7643962,120.757293 C23.2100851,119.605068 20.7339486,116.304946 20.5612977,112.489986 L20.0051593,99.6250396 C19.9200401,97.6542295 20.8933164,95.7933918 22.5422174,94.7743587 C24.1911183,93.7553255 26.2518687,93.7411118 27.9140147,94.7373075 C29.5761606,95.7335032 30.5738083,97.5807467 30.5146018,99.5525522 L30.1591066,111.388934 L43.9149208,117.135888 C44.4069501,117.34151 44.7805971,117.765754 44.9298231,118.28822 C45.0790491,118.810686 44.9875655,119.374346 44.6813348,119.819237 L41.6369198,124.242251 C41.2008633,124.878282 40.4126363,125.151322 39.6892634,124.916916 L39.689275,124.916916 Z" id="Path" fill="#2F2E41"></path>
                <path d="M8.12341639,89.26949 C8.56837589,86.6347046 8.55201764,83.9038128 8.53613911,81.262737 C8.53188105,80.5457983 8.52752387,79.8290474 8.53198017,79.1136392 C8.55269163,75.7888814 8.76166968,72.2649588 10.1383676,69.0208612 C11.6367374,65.4902488 14.4114275,62.940727 17.560712,62.2010416 C21.111305,61.3661736 24.9639904,63.2117408 26.1238721,66.2505787 C28.2213098,65.0809378 30.8261057,65.2753699 32.721594,66.7430584 C34.6170822,68.210747 35.4291956,70.6620493 34.7786066,72.9519944 C34.1280176,75.2419394 32.1431175,76.9186155 29.7510269,77.1988693 L29.6022524,77.2118651 L28.4419862,74.2347769 C28.4354048,74.2869559 28.4291129,74.3397103 28.4227258,74.3928444 C28.3488718,75.0102047 28.2725002,75.6483974 27.7562995,76.0170912 L27.7562995,76.0170912 C27.1118454,76.477339 26.3092326,77.9920685 26.5437629,79.5266754 C26.6899818,80.3118955 26.9078825,81.0824381 27.1947983,81.8288734 C27.5136584,82.6483307 27.7451495,83.498367 27.8855202,84.3652076 C28.033011,85.4763999 27.7385215,86.6007808 27.0639323,87.5020857 C26.6598478,88.033666 26.0522328,88.3779027 25.3834967,88.4541157 L12.3049042,89.7893737 L11.720174,85.4762642 L8,90 L8.12341639,89.26949 Z" id="Path" fill="#2F2E41"></path>
                <path d="M75.6082474,205 L0.391752577,205 C0.175393603,205 0,204.776142 0,204.5 C0,204.223858 0.175393603,204 0.391752577,204 L75.6082474,204 C75.8246064,204 76,204.223858 76,204.5 C76,204.776142 75.8246064,205 75.6082474,205 Z" id="Path" fill="#CCCCCC"></path>
            </g>
        </g>
    </g>
</svg>