<?xml version="1.0" encoding="UTF-8"?>
<svg width="390px" height="104px" viewBox="0 0 390 104" version="1.1" xmlns="http://www.w3.org/2000/svg" xmlns:xlink="http://www.w3.org/1999/xlink">
    <title>wave</title>
    <g id="Page-1" stroke="none" stroke-width="1" fill="none" fill-rule="evenodd">
        <g id="Summary-Safe-Reminder" transform="translate(0, -657)" fill="#3B6BDA" fill-rule="nonzero">
            <g id="wave" transform="translate(-105, 657)">
                <path d="M0,38.0748829 L17.1333333,38.0748829 C34.2666667,38.0748829 68.5333333,38.0748829 102.8,27.0873633 C137.066667,16.0998438 171.333333,-5.87519522 205.6,1.47270846 C239.866667,8.54592415 274.133333,45.6288025 308.4,52.7020182 C342.666667,60.0499219 376.933333,38.0748829 411.2,38.0748829 C445.466667,38.0748829 479.733333,60.0499219 496.866667,71.0374414 L514,82.024961 L514,104 L496.866667,104 C479.733333,104 445.466667,104 411.2,104 C376.933333,104 342.666667,104 308.4,104 C274.133333,104 239.866667,104 205.6,104 C171.333333,104 137.066667,104 102.8,104 C68.5333333,104 34.2666667,104 17.1333333,104 L0,104 L0,38.0748829 Z" id="Path"></path>
            </g>
        </g>
    </g>
</svg>