<?xml version="1.0" encoding="UTF-8"?>
<svg width="63.8790636px" height="110.457691px" viewBox="0 0 63.8790636 110.457691" version="1.1" xmlns="http://www.w3.org/2000/svg" xmlns:xlink="http://www.w3.org/1999/xlink">
    <title>blob-haikei</title>
    <g id="Page-1" stroke="none" stroke-width="1" fill="none" fill-rule="evenodd">
        <g id="Summary-Safe-Reminder" transform="translate(0, -273.2712)" fill="#3B6BDA" fill-rule="nonzero">
            <g id="blob-haikei" transform="translate(5, 328.5) rotate(100) translate(-5, -328.5)translate(-42, 277)">
                <path d="M77.0565145,23.8250452 C85.1875513,32.262333 93.1300424,40.5817816 93.931362,49.7261047 C94.7326815,58.8704278 88.4163978,68.8160576 80.285361,78.9030944 C72.1543242,88.9901313 62.2085342,99.242143 49.3638528,102.140988 C36.5427396,105.016265 20.822735,100.561942 11.8196739,90.4513376 C2.84018109,80.3643007 0.55406348,64.6445494 0.0826990253,48.4534412 C-0.388665429,32.262333 0.931155044,15.5998679 9.93421613,7.13901226 C18.9372772,-1.29827556 35.6000107,-1.51038615 48.0911687,2.63755423 C60.605895,6.80906246 68.9254776,15.3641895 77.0565145,23.8250452" id="Path"></path>
            </g>
        </g>
    </g>
</svg>