<?xml version="1.0" encoding="UTF-8"?>
<svg width="390px" height="104px" viewBox="0 0 390 104" version="1.1" xmlns="http://www.w3.org/2000/svg" xmlns:xlink="http://www.w3.org/1999/xlink">
    <title>wave</title>
    <g id="Page-1" stroke="none" stroke-width="1" fill="none" fill-rule="evenodd">
        <g id="Material-No-Data" transform="translate(0, -657)" fill="#3B6BDA" fill-rule="nonzero">
            <g id="wave" transform="translate(194.5, 709) scale(-1, 1) translate(-194.5, -709)translate(-1, 657)">
                <path d="M0,38.0748829 L13.0333333,38.0748829 C26.0666667,38.0748829 52.1333333,38.0748829 78.2,27.0873633 C104.266667,16.0998438 130.333333,-5.87519522 156.4,1.47270846 C182.466667,8.54592415 208.533333,45.6288025 234.6,52.7020182 C260.666667,60.0499219 286.733333,38.0748829 312.8,38.0748829 C338.866667,38.0748829 364.933333,60.0499219 377.966667,71.0374414 L391,82.024961 L391,104 L377.966667,104 C364.933333,104 338.866667,104 312.8,104 C286.733333,104 260.666667,104 234.6,104 C208.533333,104 182.466667,104 156.4,104 C130.333333,104 104.266667,104 78.2,104 C52.1333333,104 26.0666667,104 13.0333333,104 L0,104 L0,38.0748829 Z" id="Path"></path>
            </g>
        </g>
    </g>
</svg>