<?xml version="1.0" encoding="UTF-8"?>
<svg width="390px" height="104px" viewBox="0 0 390 104" version="1.1" xmlns="http://www.w3.org/2000/svg" xmlns:xlink="http://www.w3.org/1999/xlink">
    <title>wave</title>
    <g id="Page-1" stroke="none" stroke-width="1" fill="none" fill-rule="evenodd">
        <g id="Product-No-Data" transform="translate(0, -657)" fill="#3B6BDA" fill-rule="nonzero">
            <g id="wave" transform="translate(0, 657)">
                <path d="M0,38.0748829 L13.8666667,38.0748829 C27.7333333,38.0748829 55.4666667,38.0748829 83.2,27.0873633 C110.933333,16.0998438 138.666667,-5.87519522 166.4,1.47270846 C194.133333,8.54592415 221.866667,45.6288025 249.6,52.7020182 C277.333333,60.0499219 305.066667,38.0748829 332.8,38.0748829 C360.533333,38.0748829 388.266667,60.0499219 402.133333,71.0374414 L416,82.024961 L416,104 L402.133333,104 C388.266667,104 360.533333,104 332.8,104 C305.066667,104 277.333333,104 249.6,104 C221.866667,104 194.133333,104 166.4,104 C138.666667,104 110.933333,104 83.2,104 C55.4666667,104 27.7333333,104 13.8666667,104 L0,104 L0,38.0748829 Z" id="Path"></path>
            </g>
        </g>
    </g>
</svg>