<?xml version="1.0" encoding="UTF-8"?>
<svg width="249px" height="239px" viewBox="0 0 249 239" version="1.1" xmlns="http://www.w3.org/2000/svg" xmlns:xlink="http://www.w3.org/1999/xlink">
    <title>product</title>
    <g id="Page-1" stroke="none" stroke-width="1" fill="none" fill-rule="evenodd">
        <g id="Onboarding-Screen-#2" transform="translate(-71, -206)" fill-rule="nonzero">
            <g id="product" transform="translate(71, 206)">
                <g id="Group" transform="translate(189, 223)">
                    <polygon id="Path" fill="#FFB6B6" points="11.2507361 12.9825949 8.01189455 12.9822695 6.4711605 0 11.2513851 0.000348969321"></polygon>
                    <path d="M0.15405726,12.9062478 L0.15405726,12.9062478 C0.0532101526,13.0827458 0,13.6524013 0,13.8576556 L0,13.8576556 C0,14.4885485 0.492149513,15 1.09927609,15 L11.1295917,15 C11.5437552,15 11.8795226,14.6511011 11.8795226,14.2206878 L11.8795226,13.7867343 C11.8795226,13.7867343 12.3757115,12.4824749 11.3541437,10.8749008 C11.3541437,10.8749008 10.0844718,12.1336532 8.18725654,10.1621074 L7.62778306,9.1088744 L3.57797672,12.1867402 L1.33323092,12.4738715 C0.842124365,12.5366826 0.406717495,12.4641238 0.154099237,12.9062478 L0.154060489,12.9062478 L0.15405726,12.9062478 Z" id="Path" fill="#2F2E41"></path>
                </g>
                <g id="Group" transform="translate(202, 223)">
                    <polygon id="Path" fill="#FFB6B6" points="11.2507361 12.9825949 8.01189455 12.9822695 6.4711605 0 11.2513851 0.000348969321"></polygon>
                    <path d="M0.15405726,12.9062478 L0.15405726,12.9062478 C0.0532101526,13.0827458 0,13.6524013 0,13.8576556 L0,13.8576556 C0,14.4885485 0.492149513,15 1.09927609,15 L11.1295917,15 C11.5437552,15 11.8795226,14.6511011 11.8795226,14.2206878 L11.8795226,13.7867343 C11.8795226,13.7867343 12.3757115,12.4824749 11.3541437,10.8749008 C11.3541437,10.8749008 10.0844718,12.1336532 8.18725654,10.1621074 L7.62778306,9.1088744 L3.57797672,12.1867402 L1.33323092,12.4738715 C0.842124365,12.5366826 0.406717495,12.4641238 0.154099237,12.9062478 L0.154060489,12.9062478 L0.15405726,12.9062478 Z" id="Path" fill="#2F2E41"></path>
                </g>
                <path d="M194.075289,157.772126 L194,230 L202.917122,230 L207.128831,176.589271 L207.249088,230 L215.490587,229.904569 L221.870514,168.463671 C221.870514,168.463671 222.729383,162.048732 220.023176,158.769982 C217.316946,155.491231 194.075293,157.772105 194.075293,157.772105 L194.075293,157.772126 L194.075289,157.772126 Z" id="Path" fill="#2F2E41"></path>
                <path d="M192.980842,165.781197 C193.14647,167.994779 192.219824,169.881194 190.911099,169.994645 C189.602396,170.108085 188.407214,168.405605 188.241604,166.192013 C188.169103,165.223055 188.305949,164.316808 188.592462,163.594489 L188,154.205423 L192.099369,154 L192.248319,163.277587 C192.638536,163.941242 192.908338,164.812239 192.980839,165.781197 L192.980842,165.781197 Z" id="Path" fill="#FFB6B6"></path>
                <path d="M144.690432,56.557702 L144.690432,56.557702 L144.690432,20.733779 C144.690432,9.2828288 135.382047,0 123.899572,0 L47.7912098,0 C36.3087343,0 27,9.28249392 27,20.7334475 L27,217.266221 C27,228.717171 36.3083851,238 47.7908605,238 L123.898568,238 C135.381043,238 144.689428,228.717171 144.689428,217.266221 L144.689428,82.057767 L144.689532,82.057767 C145.412765,82.057767 146,81.4730953 146,80.7518549 L146,57.8637246 C146,57.1424373 145.413709,56.5577054 144.690436,56.5577054 L144.690432,56.557702 Z" id="b-94" fill="#3F3D56"></path>
                <path d="M140,18.73941 L140,218.260245 C127.872512,217.515161 115.865923,231.42326 124.26677,234 L46.7436103,234 C38.0508674,234 31.0025875,226.954758 31,218.260245 L31,18.73941 C31.0025875,10.0452255 38.0505088,3 46.7429367,3 L52.4601375,3 C50.903219,6.82954317 63.4687551,8.07547783 64.4320432,8.07669807 L104.135234,8.07669807 C108.268452,8.07146512 118.240089,3.89250778 117.877229,3 L124.263753,3 C132.952846,3 139.996829,10.0455574 140,18.7363996 L140,18.7394133 L140,18.7394133 L140,18.73941 Z" id="c-95" fill="#FFFFFF"></path>
                <path d="M120.73221,159 L52.2677797,159 C51.5679027,158.999249 51.0007328,158.418063 51,157.700925 L51,140.299075 C51.000916,139.581999 51.5679826,139.000939 52.2677797,139 L120.73221,139 C121.432017,139.000939 121.999084,139.581999 122,140.299075 L122,157.70128 C121.998901,158.41821 121.431874,158.999065 120.73221,159 L120.73221,159 Z M52.2677797,139.519503 C51.8477536,139.519878 51.5069786,139.868677 51.5069786,140.299078 L51.5069786,157.701284 C51.5069786,158.131685 51.8477536,158.480483 52.2677797,158.480859 L120.73221,158.480859 C121.152246,158.480483 121.493011,158.131685 121.493011,157.701284 L121.493011,140.299078 C121.493011,139.868677 121.152246,139.519878 120.73221,139.519503 L52.2677797,139.519503 Z" id="d-96" fill="#E6E6E6"></path>
                <path d="M120.73221,191.999645 L52.2677797,191.999645 C51.5679027,191.998894 51.0007328,191.417718 51,190.700593 L51,173.299052 C51.000916,172.581988 51.5679826,172.000939 52.2677797,172 L120.73221,172 C121.432017,172.000939 121.999084,172.581988 122,173.299052 L122,190.700948 C121.999084,191.418012 121.432017,191.999061 120.73221,192 L120.73221,191.999645 Z M52.2677797,172.519494 C51.8477536,172.519869 51.5069786,172.868661 51.5069786,173.299055 L51.5069786,190.700952 C51.5069786,191.131345 51.8477536,191.480138 52.2677797,191.480513 L120.73221,191.480513 C121.152246,191.480138 121.493011,191.131345 121.493011,190.700952 L121.493011,173.299055 C121.493011,172.868661 121.152246,172.519869 120.73221,172.519494 L52.2677797,172.519494 Z" id="e-97" fill="#E6E6E6"></path>
                <path d="M248.349975,239 L0.649984412,239 C0.290787355,239 0,238.776063 0,238.5 C0,238.223937 0.291112684,238 0.649984412,238 L248.350016,238 C248.708867,238 249,238.223937 249,238.5 C249,238.776063 248.709193,239 248.349975,239 Z" id="f-98" fill="#E6E6E6"></path>
                <path d="M55.4758888,88.5035377 C55.5530033,88.4175009 55.6300979,88.3361445 55.7095524,88.252786 C57.645591,86.2105848 58.6634584,85 61.0264244,85 C61.4648011,85 63.3976152,85.0199734 63.7982023,85.0599234 C65.4574237,85.2230783 66.7843936,85.7245818 67.7791153,86.5644508 C69.2478234,87.8044934 69.9841035,89.7731521 69.9878721,92.4704167 C69.9878721,92.6197348 69.996551,92.8979424 70.0102434,93.2672086 C70.0977058,95.4192198 71.5697386,97.7048042 71.8554751,98.4811775 C72.3194609,99.7453314 71.5697553,103.794575 70.9689214,104.620496 C70.6197595,105.102927 70.5493544,103.893544 69.4761762,104.120198 C69.279224,104.163047 68.4550676,105.760783 68.2324261,105.791586 C67.0817696,105.944584 65.9215163,106.013516 64.7608959,105.997815 C64.6086863,105.997815 64.4561295,105.997815 64.2969101,105.994464 L64.2952411,105.994464 C63.7454819,105.991112 63.1583137,105.975377 62.5351085,105.951614 C60.8803267,105.917664 59.2320473,105.733106 57.6105553,105.400221 L57.6088863,105.400221 C57.3949237,105.352008 57.1843023,105.297103 56.9786713,105.238857 L56.9409585,105.228475 L56.9239247,105.194993 C56.6305442,104.596171 56.4632802,103.94316 56.4325773,103.276663 C56.1187649,103.701246 55.8875247,104.181337 55.7509603,104.691802 L55.7252477,104.789895 L55.205881,103.102059 C54.4819682,102.78979 54.2811105,103.934479 53.8142507,103.297751 C53.3676826,102.633726 53.0998712,101.865193 53.0368364,101.066734 C52.8028256,98.8983349 53.691746,90.4988789 55.4758988,88.5035444 L55.4758888,88.5035377 Z" id="g-99" fill="#2F2E41"></path>
                <path d="M55,158 L65.3787887,158 L67.1191754,149.422722 L67.6836583,158 L78,158 C78.0050602,151.643015 75.375731,135.981549 75.6903864,135.849978 C76.0050418,135.718406 75.5300287,135.301138 75.5300287,135.301138 L73.84738,129.542122 L73.6897231,129 L61.6762127,129 C60.9848595,129.647325 60.3471626,130.349323 59.7693914,131.099136 C59.5735711,131.347819 59.3693242,131.617023 59.1596586,131.906763 C59.0141388,132.112031 58.8635718,132.328076 58.7130014,132.55421 C57.3743496,134.540504 56.3737428,136.733377 55.7515017,139.044453 L55.7515017,139.046135 C55.6459582,139.441426 55.5524269,139.845919 55.4709516,140.259593 L55.4709516,140.261276 C55.3983555,140.629086 55.3342097,141.001598 55.2839093,141.383189 C55.2457662,141.661142 55.2130045,141.942464 55.1887102,142.227154 C55.0443045,143.80501 55.0948716,145.394577 55.3392772,146.960151 L55,158 L55,158 Z" id="h-100" fill="#2F2E41"></path>
                <circle id="i" fill="#FFB6B6" cx="64" cy="93" r="6"></circle>
                <path d="M59.9796342,86.1781543 L65.7805197,86.1781543 C66.4822071,86.0140244 67.2053792,85.9628371 67.9230473,86.0265201 C68.8049987,86.0940886 69.6475334,86.4215188 70.3452323,86.9678496 C71.383305,87.8053179 71.9558367,89.1398309 71.9558367,90.7258509 C71.9529741,91.2329825 72.0566202,91.9004082 71.9558367,92.3973335 L71.250623,91.2291369 L71.0641715,92.3973335 C70.5290621,92.5351348 70.6674958,92.562263 70.1299695,92.669545 C70.0011968,92.6950939 69.8707898,92.7206394 69.7403629,92.7445359 C69.0357732,92.8755949 68.3638645,93.126259 68.3638645,93.126259 L67.5638369,93.0338717 C67.063974,92.5719218 66.9800758,91.4310724 66.712975,90.8036356 C66.6607343,90.9867015 66.5963364,91.3093404 66.5336224,91.6585999 C66.3721159,92.558069 65.5908919,93.2168447 64.6813806,93.2173822 L64.6658721,93.2173722 C62.4403345,93.2157431 62.4411599,91.4844861 60.2803537,90.9490119 C60.1380371,90.9158283 61.5909287,101.0374 61.4506064,101 L57,98.1247072 L57.5746482,88.5950099 C57.5760977,87.2608286 58.6519988,86.1796242 59.9796441,86.1781443 L59.9796375,86.1781543 L59.9796309,86.1781543 L59.9796342,86.1781543 Z" id="j-101" fill="#2F2E41"></path>
                <path d="M53.4918425,85.8686512 C52.3858437,88.0765712 53.1902435,88.5727122 55.4512998,89.6527142 C57.7123323,90.7327262 60.5738247,91.9876046 61.6798065,89.7796778 C62.7858019,87.5717711 60.8488245,85.7676685 58.5877784,84.6876664 C59.0703862,82.8577297 55.8371816,82.0191736 54.2679475,84.7730466 C54.8071414,85.2130864 53.5656202,86.4087524 53.8326345,87.0434904 C53.2816366,86.6091055 54.2367026,85.7773758 53.5338215,85.8615042 C53.5199459,85.863694 53.5068189,85.8659473 53.4918357,85.8686412 L53.4918425,85.8686512 L53.4918425,85.8686512 Z" id="k-102" fill="#2F2E41"></path>
                <path d="M120.73221,191.999645 L52.2677797,191.999645 C51.5679027,191.998894 51.0007328,191.417718 51,190.700593 L51,173.299052 C51.000916,172.581988 51.5679826,172.000939 52.2677797,172 L120.73221,172 C121.432017,172.000939 121.999084,172.581988 122,173.299052 L122,190.700948 C121.999084,191.418012 121.432017,191.999061 120.73221,192 L120.73221,191.999645 Z M52.2677797,172.519494 C51.8477536,172.519869 51.5069786,172.868661 51.5069786,173.299055 L51.5069786,190.700952 C51.5069786,191.131345 51.8477536,191.480138 52.2677797,191.480513 L120.73221,191.480513 C121.152246,191.480138 121.493011,191.131345 121.493011,190.700952 L121.493011,173.299055 C121.493011,172.868661 121.152246,172.519869 120.73221,172.519494 L52.2677797,172.519494 Z" id="l-103" fill="#E6E6E6"></path>
                <path d="M64.8946936,178 C64.400567,178 64,178.447547 64,178.999627 C64,179.551706 64.400567,179.999253 64.8946936,179.999253 L107.07086,179.999253 C107.564718,180.02039 107.980412,179.590221 107.99933,179.038464 C108.018268,178.486684 107.633255,178.022236 107.139397,178.001077 C107.126301,178.000529 107.113186,178.000274 107.100067,178.000368 L64.8946936,178.000368 L64.8946936,178 L64.8946936,178 L64.8946936,178 Z" id="m-104" fill="#E6E6E6"></path>
                <path d="M64.8946936,184 C64.400567,184 64,184.447547 64,184.999627 C64,185.551706 64.400567,185.999253 64.8946936,185.999253 L107.07086,185.999253 C107.564718,186.02039 107.980412,185.590243 107.99933,185.038464 C108.018268,184.486684 107.633255,184.022236 107.139397,184.001077 C107.126301,184.000529 107.113186,184.000274 107.100067,184.000368 L64.8946936,184.000368 L64.8946936,184 L64.8946936,184 L64.8946936,184 Z" id="n-105" fill="#E6E6E6"></path>
                <path d="M120.73221,57.999645 L52.2677797,57.999645 C51.5679027,57.9988941 51.0007328,57.4177181 51,56.7005933 L51,39.2990517 C51.000916,38.5819883 51.5679826,38.0009386 52.2677797,38 L120.73221,38 C121.432017,38.0009386 121.999084,38.5819883 122,39.2990517 L122,56.7009483 C121.999084,57.4180117 121.432017,57.9990614 120.73221,58 L120.73221,57.999645 L120.73221,57.999645 Z M52.2677797,38.5194937 C51.8477536,38.5198692 51.5069786,38.8686615 51.5069786,39.2990552 L51.5069786,56.7009517 C51.5069786,57.1313453 51.8477536,57.4801377 52.2677797,57.4805131 L120.73221,57.4805131 C121.152246,57.4801377 121.493011,57.1313453 121.493011,56.7009517 L121.493011,39.2990552 C121.493011,38.8686615 121.152246,38.5198692 120.73221,38.5194937 L52.2677797,38.5194937 L52.2677797,38.5194937 Z" id="o-106" fill="#E6E6E6"></path>
                <path d="M72.8946937,44 C72.4005671,44 72,44.447547 72,44.9996266 C72,45.5517062 72.4005671,45.9992533 72.8946937,45.9992533 L115.07086,45.9992533 C115.564718,46.0203901 115.980412,45.5902208 115.99933,45.0384638 C116.018268,44.4866844 115.633255,44.0222361 115.139397,44.0010767 C115.126301,44.000529 115.113186,44.0002739 115.100067,44.0003677 L72.8946903,44.0003677 L72.8946903,44 L72.894697,44 L72.8946937,44 Z" id="p-107" fill="#E6E6E6"></path>
                <path d="M72.8946937,50 C72.4005671,50 72,50.447547 72,50.9996266 C72,51.5517062 72.4005671,51.9992532 72.8946937,51.9992532 L115.07086,51.9992532 C115.564718,52.0203901 115.980412,51.5902433 115.99933,51.0384638 C116.018268,50.4866844 115.633255,50.0222361 115.139397,50.0010767 C115.126301,50.000529 115.113186,50.0002739 115.100067,50.0003677 L72.8946903,50.0003677 L72.8946903,50 L72.894697,50 L72.8946937,50 Z" id="q-108" fill="#E6E6E6"></path>
                <circle id="r" fill="#E6E6E6" cx="60.5" cy="48.5" r="5.5"></circle>
                <path d="M212.933568,111.645387 L203.559685,111 L200.754837,115.426841 L194,118.176806 L194,139.991163 C194.702815,142.10324 195.066099,144.313683 195.076327,146.539893 C195.0504,150.885859 193.935181,156.005348 194.321109,157.126701 C198.09725,168.091624 218.865043,157.126701 218.865043,157.126701 L218.487432,145.405549 L219,118.916376 L214.756149,115.527007 L212.933571,111.645387 L212.933568,111.645387 Z" id="s-109" fill="#E6E6E6"></path>
                <path d="M194.975074,118 L194.873774,118.018795 C192.95769,118.375526 191.324961,119.748775 190.510142,121.688961 C189.462254,124.181261 188,160.303683 188,160.303683 C188,160.303683 191.908663,159.977512 193.853989,161 C193.853989,161 194.732206,155.680161 194.206128,154.75498 C193.680051,153.829799 194.665378,144.577723 194.665378,144.577723 C196.804142,138.428005 195.960083,128.306795 194.975071,118 L194.975074,118 Z" id="t-110" fill="#E6E6E6"></path>
                <path d="M224.959145,164.987212 C224.951464,167.20846 223.835105,169.00503 222.465686,169 C221.096267,168.994949 219.992356,167.190191 220,164.968944 C220.003409,163.996633 220.219242,163.105712 220.5757,162.41163 L220.722629,153 L225,153.165232 L224.401154,162.425728 C224.752807,163.122422 224.962495,164.014898 224.959126,164.987209 L224.959145,164.987209 L224.959145,164.987212 Z" id="Path" fill="#FFB6B6"></path>
                <path d="M217,119 L217.1148,119.013123 C219.281412,119.264134 221.182558,120.548215 222.196188,122.445185 C223.498316,124.882616 226.89513,155.912466 226.786522,156.478759 C226.677914,157.045052 227,160.977119 227,160.977119 C227,160.977119 222.599489,160.86811 220.470501,162 L218.714023,145.599129 L217,119 L217,119 Z" id="u-111" fill="#E6E6E6"></path>
                <g id="Group" transform="translate(25, 61)" fill="#3F3D56">
                    <path d="M1,0 C0.448488577,0 0,0.452017268 0,1.00787548 L0,9.07086917 C0,9.626724 0.448485233,10.0787446 1,10.0787446 C1.55151477,10.0787446 2,9.62672737 2,9.07086917 L2,1.00787548 C2,0.452020638 1.55151477,0 1,0 Z" id="Path"></path>
                    <path d="M1,24.1889811 C0.448488577,24.1889811 0,24.6409983 0,25.1968565 L0,40.8189045 C0,41.3747593 0.448485233,41.8267766 1,41.8267766 C1.55151477,41.8267766 2,41.3747593 2,40.8189045 L2,25.1968565 C2,24.6410017 1.55151477,24.1889811 1,24.1889811 L1,24.1889811 Z" id="Path"></path>
                    <path d="M1,46.3622078 C0.448488577,46.3622078 0,46.8142251 0,47.3700799 L0,62.9921279 C0,63.5479827 0.448485233,64 1,64 C1.55151477,64 2,63.5479827 2,62.9921279 L2,47.3700799 C2,46.8142251 1.55151477,46.3622078 1,46.3622078 Z" id="Path"></path>
                </g>
                <circle id="Oval" fill="#E6E6E6" cx="94.5" cy="89.5" r="3.5"></circle>
                <path d="M109.301833,88.401739 C109.167983,88.1706445 108.927071,88.0299816 108.659371,88.0299816 C108.391687,88.0299816 108.150779,88.1706412 108.016929,88.401739 L106.578114,91.6270144 C106.007489,87.8707709 103.888101,84.6176805 101.231073,81.5392372 C101.033644,81.2009651 100.685661,81 100.294152,81 C99.9026664,81 99.55468,81.2009651 99.3572508,81.5392372 C98.1005775,87.1699484 94.6562588,92.6026317 90.1095282,97.9355257 C89.7134351,98.9239102 90.4405433,100 91.5044954,100 L112.99936,100 C114.358136,100 115.321046,98.6724124 114.900222,97.3792511 C114.106771,93.7409362 112.448932,90.6230394 109.301836,88.4017357 L109.301833,88.401739 Z" id="Path" fill="#3B6BDA"></path>
                <path d="M103,74 C92.5233367,74 84,82.5233433 84,93 C84,97.2466633 85.4000033,101.17332 87.7666833,104.339987 C91.2333367,108.986653 96.77,112 103,112 C109.40334,112 115.07668,108.81667 118.52,103.949993 C120.710003,100.853333 122,97.0733267 122,93 C122,82.5233367 113.476683,74 103,74 L103,74 Z M118.150003,103.31 C114.84668,108.150007 109.28668,111.333337 103,111.333337 C96.88334,111.333337 91.46,108.323327 88.1300033,103.710003 C85.95001,100.696657 84.6666667,96.99333 84.6666667,93.0000033 C84.6666667,82.8899967 92.8900133,74.66667 103,74.66667 C113.10667,74.66667 121.333333,82.8899967 121.333333,93.0000033 C121.333333,96.81999 120.160013,100.37 118.150003,103.31 L118.150003,103.31 Z" id="Shape" fill="#E6E6E6"></path>
                <g id="Group" transform="translate(55, 97)">
                    <path d="M28.3315416,1.56805738 L28.3315416,1.56805738 C29.2035283,0.256164015 30.5794936,-0.352339759 31.4048664,0.208927204 C32.2302391,0.770194168 32.1924502,2.28867805 31.3204702,3.60057141 C30.9387735,4.17483264 30.4604919,4.61427924 29.97411,4.87986425 L26.2103174,10.3918537 L23.6906549,8.55025327 L27.6684509,3.31197447 C27.7280453,2.75616063 27.9498716,2.14230847 28.3315616,1.56804724 L28.3315616,1.56804724 L28.3315416,1.56805738 L28.3315416,1.56805738 Z" id="Path" fill="#FFB6B6"></path>
                    <path d="M27.5642066,8.93141153 L17.2626948,20.8985589 L16.3140581,22 L11.901508,20.3850187 L5.0939657,17.888198 L5.09062205,17.888198 L0,16.0231802 C0.0534549069,15.5670701 0.126931604,15.1143252 0.223793779,14.6649792 C0.327343246,14.1716905 0.45427485,13.6817838 0.607935578,13.1986379 C1.06889772,11.7390606 1.74696969,10.350445 2.62214974,9.08683587 C2.94949299,9.22196808 3.27683623,9.38415647 3.60752312,9.56997847 L11.196707,12.8945532 L15.4188563,14.7426812 L17.1457875,13.0398518 L24.5846542,5.70142864 L25.2794244,6.45485931 L25.282768,6.45824133 L27.3571044,8.70842783 L27.360448,8.71180986 L27.5642066,8.93140815 L27.5642066,8.93141153 Z" id="Path" fill="#3B6BDA"></path>
                </g>
                <path d="M75.5071788,132 L57.7355552,131.245949 C58.000533,130.708312 57.5978904,130.15037 57.7321103,129.680349 C57.8525541,129.27121 58.5270849,128.943202 58.5477336,128.561097 C58.6716223,126.491665 58.3515676,123.123758 55.9356638,119.509014 C55.4366709,118.758348 55.1923212,117.777724 55.0787465,116.685531 C54.9651925,115.610241 54.9755065,114.541717 55.1028401,113.49008 C55.1579136,113.033595 55.2336151,112.580477 55.3334103,112.130761 C55.4400952,111.637066 55.5708702,111.146756 55.7291838,110.663212 C56.2041037,109.202433 56.9027074,107.812674 57.8043876,106.548024 C57.8628854,106.460104 57.9248314,106.375568 57.9867741,106.291032 C58.3206049,105.837911 58.6785087,105.401717 59.0639475,104.982421 C59.5078875,104.49888 59.9862523,104.038989 60.4921556,103.606177 L61.2595917,102.953565 L68.3971528,102 L72.1311177,109.26668 L72.7677995,110.504292 L73.4560892,111.843323 C73.0603157,113.665914 72.8847984,115.285611 72.8572806,116.763293 C72.8469459,117.317851 72.8572806,117.852123 72.8882433,118.369471 C72.9329821,119.177635 73.0155769,119.945225 73.132593,120.682376 C73.4147953,122.491432 73.8656216,124.134818 74.2889163,125.798472 C74.5126174,126.667502 74.7259872,127.539893 74.9015045,128.446135 C74.9840959,128.872178 75.854772,129.710785 75.978678,130.096271 C76.1473055,130.613619 75.2525151,131.563799 75.5071788,132 L75.5071788,132 Z" id="Path" fill="#3B6BDA"></path>
                <g id="Group" transform="translate(55, 106)">
                    <path d="M32.605801,10.8992499 L32.605801,10.8992499 C34.0493437,10.305659 35.5285678,10.562419 35.9097459,11.4727576 C36.2909241,12.3830963 35.4297174,13.6022646 33.9861714,14.1958654 C33.3542749,14.4556973 32.7155575,14.5525674 32.1650882,14.5030267 L26.0165335,16.9422273 L24.9229136,14.058518 L31.1002585,11.9600244 C31.4536284,11.5388328 31.9739146,11.1591083 32.605791,10.8992664 L32.605791,10.8992664 L32.605801,10.8992465 L32.605801,10.8992499 Z" id="Path" fill="#FFB6B6"></path>
                    <path d="M0.384134351,4.28010651 C0.230475934,4.75346378 0.10354682,5.2334481 0,5.71673933 L11.4239209,21 L18.3985253,19.096627 L27.945182,16.4914887 L27.8950804,16.1968764 L27.3940313,13.2176839 L27.2270149,12.2213062 L17.2761751,14.0882702 L14.6473372,14.5814887 L10.201361,7.80548096 L10.198024,7.80548096 L7.62931193,3.88950128 C6.41343263,1.55580382 4.56623138,0.211856997 2.57539604,0 L0.384141032,4.2801032 L0.384134351,4.2801032 L0.384134351,4.28010651 Z" id="Path" fill="#3B6BDA"></path>
                </g>
                <circle id="Oval" fill="#E6E6E6" cx="121" cy="158" r="2"></circle>
                <circle id="v" fill="#FFB6B6" cx="208.5" cy="102.5" r="7.5"></circle>
                <path d="M213.402679,109 C214.399474,108.186007 214.496253,106.634533 215.346725,105.656324 C216.768757,104.021207 217.437074,102.261636 216.692187,100.324245 C216.03332,98.6105782 216.173434,96.5038675 214.754006,95.4008602 C215.451002,95.1376939 213.039355,95.4012036 213.783287,94.3706223 C214.527218,93.3400411 213.11887,93.747036 213.212068,93.3250805 C213.305265,92.903125 212.037608,92.1302426 211.213943,92.9719197 C211.090095,93.0984792 210.981843,93.240635 210.89167,93.3951197 C210.053247,92.0843681 207.760732,91.5722753 206.476866,92.4039493 C205.217104,93.2199759 206.019449,94.3764638 204.66486,94.1336982 C204.028147,94.019454 202.653847,93.9271372 202.218825,94.4255956 C201.810155,94.9640258 203.099828,96.0622083 202.444541,95.9972387 C201.809461,95.8721107 200.183113,98.046154 200.183113,98.046154 L199.579954,97.2743291 C198.621623,97.9261296 198.936398,99.6265355 199.900917,100.266436 C200.263602,100.507056 201.102358,101.107174 201.523886,101.161808 C201.865153,101.206036 202.148884,99.4998809 202.501448,99.4617451 C202.871508,99.4217154 202.875206,100.577255 203.230163,100.486427 C204.567628,100.144517 205.948491,100.02551 207.321598,100.133848 C209.419125,100.442919 210.879919,103.057959 210.103093,105.115714 C210.908937,104.290161 212.399703,104.975292 212.817126,106.070133 C213.234548,107.164973 212.089741,107.589482 211.780196,108.722744" id="w-112" fill="#2F2E41"></path>
            </g>
        </g>
    </g>
</svg>